<?xml version="1.0" encoding="utf-8"?>
<!-- Generator: Adobe Illustrator 17.1.0, SVG Export Plug-In . SVG Version: 6.00 Build 0)  -->
<!DOCTYPE svg PUBLIC "-//W3C//DTD SVG 1.1//EN" "http://www.w3.org/Graphics/SVG/1.1/DTD/svg11.dtd">
<svg version="1.1" id="Layer_1" xmlns="http://www.w3.org/2000/svg" xmlns:xlink="http://www.w3.org/1999/xlink" x="0px" y="0px"
	 viewBox="0 170 960 205.8" enable-background="new 0 170 960 205.8" xml:space="preserve">
<g>
	<g>
		<path fill="#FFFFFF" d="M199.8,375.8H9.8c-5.4,0-9.8-4.4-9.8-9.8V179.8c0-5.4,4.4-9.8,9.8-9.8h95c5.4,0,9.8,4.4,9.8,9.8v28.7
			c0,5.4-4.4,9.8-9.8,9.8s-9.8-4.4-9.8-9.8v-18.7H19.8V356h170V189.8h-24.2c-5.4,0-9.8-4.4-9.8-9.8s4.4-9.8,9.8-9.8h34.2
			c5.4,0,9.8,4.4,9.8,9.8v186C209.6,371.4,205.2,375.8,199.8,375.8z"/>
	</g>
	
		<g id="svg1_copy_3_4_" xmlns:sodipodi="http://sodipodi.sourceforge.net/DTD/sodipodi-0.dtd" xmlns:inkscape="http://www.inkscape.org/namespaces/inkscape" xmlns:svg="http://www.w3.org/2000/svg" xmlns:rdf="http://www.w3.org/1999/02/22-rdf-syntax-ns#" xmlns:dc="http://purl.org/dc/elements/1.1/" xmlns:cc="http://creativecommons.org/ns#" sodipodi:docname="heart_jon_phillips_01.svg" sodipodi:docbase="C:\Documents and Settings\Jon Phillips\My Documents\projects\clipart-project\submissions" inkscape:version="0.46" inkscape:output_extension="org.inkscape.output.svg.inkscape" sodipodi:version="0.32">
		<defs>
			
			
				<inkscape:perspective  sodipodi:type="inkscape:persp3d" inkscape:vp_y="0 : 1000 : 0" inkscape:vp_x="0 : 526.18109 : 1" inkscape:vp_z="744.09448 : 526.18109 : 1" id="perspective9" inkscape:persp3d-origin="372.04724 : 350.78739 : 1">
				</inkscape:perspective>
		</defs>
		
			<sodipodi:namedview  inkscape:zoom="0.35" showguides="true" pagecolor="#ffffff" bordercolor="#666666" inkscape:cx="549.40674" inkscape:cy="596.00159" borderopacity="1.0" showgrid="false" id="base" inkscape:pageopacity="0.0" inkscape:window-height="667" inkscape:window-width="866" inkscape:pageshadow="2" inkscape:window-y="116" inkscape:document-units="px" inkscape:guide-bbox="true" inkscape:window-x="88" inkscape:current-layer="layer1">
			</sodipodi:namedview>
		<g id="layer1_5_" transform="translate(-134.06575,-225.79588)" inkscape:label="Layer 1" inkscape:groupmode="layer">
			<g id="path7_5_">
				<path sodipodi:nodetypes="ccccccc" fill="#F65A5B" d="M220.2,464.4c-11.3,0-20.5,9.2-20.5,20.5c0,23.1,23.3,29.1,39.1,51.9
					c15.2-22.6,39.2-29.7,39.2-51.9c0-11.3-9.2-20.5-20.5-20.5c-8.2,0-15.2,4.9-18.5,11.8C235.6,469.1,228.6,464.4,220.2,464.4z"/>
				<path fill="#F65A5B" d="M238.9,537.9c-0.3,0-0.8-0.2-1-0.5c-6.1-8.7-13.3-14.9-19.5-20.5c-10.6-9.3-19.8-17.4-19.8-32.1
					c0-12,9.8-21.8,21.8-21.8c7.5,0,14.6,4.1,18.5,10.5c3.9-6.4,11-10.5,18.5-10.5c12,0,21.8,9.8,21.8,21.8
					c0,14.1-9.2,22.1-19.6,31.4c-6.5,5.7-13.9,12.3-19.6,21C239.7,537.8,239.2,537.9,238.9,537.9L238.9,537.9z M220.2,465.5
					c-10.6,0-19.3,8.7-19.3,19.3c0,13.6,8.4,21,18.8,30.1c6.1,5.4,12.9,11.3,18.8,19.5c5.7-8.4,12.8-14.6,19-20
					c10.2-9,18.8-16.7,18.8-29.6c0-10.6-8.7-19.3-19.3-19.3c-7.4,0-14.2,4.4-17.5,11.1c-0.2,0.5-0.7,0.7-1.1,0.7l0,0
					c-0.5,0-1-0.3-1.1-0.7C234.7,470,227.8,465.5,220.2,465.5z"/>
			</g>
		</g>
	</g>
	<path fill="#FFFFFF" d="M334.6,315.2c0,6.1-4.9,11-11,11s-11-4.9-11-11v-1c-5.4,7.2-12.8,12.6-24.2,12.6
		c-18.2,0-35.5-14.2-35.5-40.3v-0.3c0-26,17-40.3,35.5-40.3c11.8,0,19,5.4,24.2,11.6v-28.2c0-6.1,4.9-11,11-11s11,4.9,11,11V315.2z
		 M274.8,286.2v0.3c0,12.9,8.7,21.4,19,21.4s18.8-8.5,18.8-21.4v-0.3c0-12.9-8.5-21.4-18.8-21.4S274.8,273.1,274.8,286.2z"/>
	<path fill="#FFFFFF" d="M350.5,286.9v-0.3c0-22.4,18-40.6,42.2-40.6c24.1,0,41.9,17.8,41.9,40.3v0.3c0,22.4-18,40.6-42.2,40.6
		C368.3,327.2,350.5,309.3,350.5,286.9z M413,286.9v-0.3c0-11.5-8.4-21.4-20.5-21.4c-12.6,0-20.1,9.7-20.1,21.3v0.3
		c0,11.5,8.4,21.4,20.5,21.4C405.5,308,413,298.4,413,286.9z"/>
	<path fill="#FFFFFF" d="M450.8,257.8c0-6.1,4.9-11,11-11s11,4.9,11,11v0.8c5.1-6.5,11.6-12.4,22.8-12.4c16.7,0,26.5,11,26.5,29
		v40.3c0,6.1-4.9,11-11,11s-11-4.9-11-11v-33.4c0-10.5-4.9-15.9-13.4-15.9c-8.4,0-13.8,5.4-13.8,15.9v33.2c0,6.1-4.9,11-11,11
		s-11-4.9-11-11L450.8,257.8L450.8,257.8z"/>
	<path fill="#FFFFFF" d="M537.6,286.9v-0.3c0-22.4,18-40.6,42.2-40.6c24.1,0,41.9,17.8,41.9,40.3v0.3c0,22.4-18,40.6-42.2,40.6
		C555.5,327.2,537.6,309.3,537.6,286.9z M600,286.9v-0.3c0-11.5-8.4-21.4-20.5-21.4c-12.6,0-20.1,9.7-20.1,21.3v0.3
		c0,11.5,8.4,21.4,20.5,21.4C592.5,308,600,298.4,600,286.9z"/>
	<path fill="#FFFFFF" d="M637.8,257.8c0-6.1,4.9-11,11-11s11,4.9,11,11v3.4c3.3-7.5,8.4-14.6,14.9-14.6c6.9,0,10.8,4.6,10.8,10.8
		c0,5.9-3.8,9.3-8.4,10.3c-11.1,2.6-17.5,11.1-17.5,26.9v20.6c0,6.1-4.9,11-11,11s-11-4.9-11-11v-57.5h0.2V257.8z"/>
	<path fill="#FFFFFF" d="M699.9,229.8c0-6.1,4.9-11,11-11s11,4.9,11,11v29.1c5.4-7.2,12.8-12.6,24.2-12.6
		c18.2,0,35.5,14.2,35.5,40.3v0.3c0,26-17,40.3-35.5,40.3c-11.8,0-19-5.4-24.2-11.6v0.2c0,5.9-4.9,11-11,11s-11-4.9-11-11V229.8z
		 M759.4,286.9v-0.3c0-12.9-8.7-21.4-19-21.4s-18.8,8.5-18.8,21.4v0.3c0,12.9,8.5,21.4,18.8,21.4S759.4,299.8,759.4,286.9z"/>
	<path fill="#FFFFFF" d="M794.1,287.1v-0.3c0-22.4,18-40.6,42.2-40.6c24.1,0,41.9,17.8,41.9,40.3v0.3c0,22.4-18,40.6-42.2,40.6
		C811.9,327.3,794.1,309.5,794.1,287.1z M856.5,287.1v-0.3c0-11.5-8.4-21.4-20.5-21.4c-12.6,0-20.1,9.7-20.1,21.3v0.3
		c0,11.5,8.4,21.4,20.5,21.4C848.9,308.3,856.5,298.7,856.5,287.1z"/>
	<path fill="#FFFFFF" d="M891,309.7l20-23.6l-18.2-21c-2.5-2.9-3.6-5.6-3.6-8.4c0-6.2,4.6-10.2,10.2-10.2c4.4,0,7.4,2,10.3,5.7
		l14.4,19.2l14.7-19.2c2.6-3.3,5.7-5.7,9.7-5.7c5.9,0,10.3,4.1,10.3,9.7c0,3.1-1.3,5.4-3.1,7.5l-18.8,22.2l19.5,22.4
		c2.5,2.9,3.6,5.6,3.6,8.4c0,6.2-4.6,10.2-10.2,10.2c-4.4,0-7.4-2-10.3-5.7l-15.7-20.7l-15.7,20.6c-2.6,3.3-5.7,5.7-9.7,5.7
		c-5.9,0-10.3-4.1-10.3-9.7C888.1,314.1,889.2,311.8,891,309.7z"/>
</g>
</svg>
