<?xml version="1.0" encoding="UTF-8" standalone="no"?>
<!-- Created with Inkscape (http://www.inkscape.org/) -->

<svg
   xmlns:dc="http://purl.org/dc/elements/1.1/"
   xmlns:cc="http://creativecommons.org/ns#"
   xmlns:rdf="http://www.w3.org/1999/02/22-rdf-syntax-ns#"
   xmlns:svg="http://www.w3.org/2000/svg"
   xmlns="http://www.w3.org/2000/svg"
   version="1.1"
   width="256"
   height="256"
   id="svg2">
  <defs
     id="defs4" />
  <metadata
     id="metadata7">
    <rdf:RDF>
      <cc:Work
         rdf:about="">
        <dc:format>image/svg+xml</dc:format>
        <dc:type
           rdf:resource="http://purl.org/dc/dcmitype/StillImage" />
        <dc:title></dc:title>
      </cc:Work>
    </rdf:RDF>
  </metadata>
  <g
     transform="translate(0,-796.36218)"
     id="layer1">
    <path
       d="m 150,101 a 42.5,40 0 1 1 -85,0 42.5,40 0 1 1 85,0 z"
       transform="matrix(2.7529194,0,0,2.9249769,-167.93884,628.93951)"
       id="path2987"
       style="fill:#ffffff;fill-opacity:1;stroke:#000000;stroke-width:2.11508107;stroke-linejoin:round;stroke-miterlimit:4;stroke-opacity:1;stroke-dasharray:none" />
    <path
       d="m 175,136 a 40,40 0 1 1 -80,0 40,40 0 1 1 80,0 z"
       transform="matrix(0.72986458,0,0,0.72986458,29.468282,825.1006)"
       id="path3757"
       style="fill:#ffffff;fill-opacity:1;stroke:#000000;stroke-width:7.6875;stroke-linejoin:round;stroke-miterlimit:4;stroke-opacity:1;stroke-dasharray:none" />
    <path
       d="m 210,91 a 25,15 0 1 1 -50,0 25,15 0 1 1 50,0 z"
       transform="matrix(0.22329299,0,0,0.37215497,86.690797,890.49608)"
       id="path3762"
       style="fill:#ffffff;fill-opacity:1;stroke:#000000;stroke-width:16.77368736;stroke-linejoin:round;stroke-miterlimit:4;stroke-opacity:1;stroke-dasharray:none" />
    <rect
       width="6"
       height="84"
       x="125"
       y="808.36218"
       id="rect3767"
       style="fill:#000000;fill-opacity:1;stroke:none" />
  </g>
</svg>
